<?xml version="1.0" standalone="no"?>
<!DOCTYPE svg PUBLIC "-//W3C//DTD SVG 20010904//EN"
 "http://www.w3.org/TR/2001/REC-SVG-20010904/DTD/svg10.dtd">
<svg version="1.0" xmlns="http://www.w3.org/2000/svg"
 width="300.000000pt" height="207.000000pt" viewBox="0 0 300.000000 207.000000"
 preserveAspectRatio="xMidYMid meet">
<metadata>
Created by potrace 1.10, written by Peter Selinger 2001-2011
</metadata>
<g transform="translate(0.000000,207.000000) scale(0.100000,-0.100000)"
fill="#000000" stroke="none">
<path d="M1242 1933 c-24 -24 -27 -33 -22 -66 l7 -37 -31 6 c-56 10 -96 -55
-67 -109 8 -15 18 -27 23 -27 4 0 8 -5 8 -10 0 -7 -6 -7 -20 0 -37 20 -79 8
-101 -27 -19 -31 -19 -34 -4 -67 21 -44 66 -56 113 -32 17 9 46 16 64 16 33 0
34 -1 30 -36 -4 -28 1 -41 24 -65 27 -28 27 -29 9 -49 -24 -26 -79 -26 -112 0
-34 27 -69 25 -98 -5 -32 -31 -32 -65 0 -99 27 -29 57 -33 95 -11 14 8 42 14
62 15 30 0 41 -6 58 -30 29 -41 61 -47 104 -21 33 21 86 21 86 2 0 -4 -19 -24
-42 -44 -36 -32 -50 -37 -93 -38 -84 -2 -109 2 -141 22 -41 25 -78 24 -104 -3
-57 -62 19 -153 95 -114 17 9 51 16 77 16 l47 0 -24 -42 c-50 -88 -34 -98 155
-98 l142 0 42 44 c42 45 72 59 166 74 l55 9 -70 1 c-90 2 -148 -22 -171 -72
l-17 -35 -158 2 c-178 2 -168 -5 -108 83 l28 42 261 -1 c308 0 297 -4 298 101
2 89 4 97 32 127 l23 25 -26 51 c-30 57 -33 85 -13 114 11 17 11 28 0 70 -8
28 -16 60 -18 71 -9 60 -114 194 -153 194 -6 0 -18 6 -25 13 -23 22 -99 57
-124 57 -44 0 -25 -16 46 -39 39 -12 70 -26 70 -32 0 -5 -78 -9 -191 -9 -156
0 -193 -3 -205 -15 -32 -31 -84 -12 -84 30 0 42 54 62 80 30 10 -12 39 -15
144 -15 104 1 127 3 111 12 -12 7 -55 11 -111 9 -77 -2 -98 1 -132 18 -53 27
-57 26 -90 -6z m565 -122 c24 -24 43 -48 43 -53 0 -4 -139 -8 -309 -8 -265 0
-310 -2 -315 -15 -3 -9 -18 -15 -36 -15 -42 0 -62 40 -35 70 22 24 42 25 65 5
14 -13 58 -16 254 -18 130 -1 236 2 236 6 0 4 -11 19 -25 33 -14 14 -25 28
-25 32 0 4 23 7 52 7 47 -1 55 -4 95 -44z m-166 23 c18 -22 1 -31 -68 -38 -47
-4 -63 -3 -63 7 0 9 -2 9 -9 -1 -8 -13 -92 -11 -166 3 -11 2 -22 4 -25 4 -3 1
9 10 25 21 27 18 45 20 162 19 102 -1 135 -4 144 -15z m-245 -119 c5 -13 35
-15 180 -15 150 0 173 2 168 15 -5 12 5 15 60 15 36 0 66 -4 66 -9 0 -5 2 -16
6 -24 4 -11 -16 -15 -108 -21 l-113 -7 -28 -35 -29 -34 -226 6 c-204 6 -228 5
-241 -9 -35 -43 -98 3 -72 52 16 29 71 29 78 0 6 -21 8 -21 229 -16 213 4 254
10 254 36 0 13 -213 -1 -236 -16 -13 -8 -32 -12 -43 -8 -26 8 -38 50 -21 70
16 20 69 19 76 0z m-109 -25 l0 -31 -55 3 c-33 2 -57 8 -60 16 -2 7 6 12 20
12 13 0 32 7 42 15 33 25 53 19 53 -15z m612 -74 c11 -30 12 -42 3 -57 -7 -10
-17 -27 -23 -37 -9 -15 -7 -26 14 -58 l25 -40 -292 -3 -291 -2 -30 -29 c-27
-26 -39 -30 -87 -30 -37 0 -60 -5 -68 -15 -26 -32 -80 -12 -80 30 0 45 59 63
82 25 10 -15 24 -20 58 -20 39 0 51 5 80 35 l34 35 198 0 197 0 16 30 c8 16
15 30 15 32 0 2 -88 2 -196 1 -163 -1 -198 -4 -213 -17 -23 -21 -44 -20 -65 3
-21 23 -14 56 15 72 16 8 26 6 47 -7 23 -15 54 -18 225 -19 l197 -2 0 56 0 56
62 -1 63 -1 14 -37z m-169 24 c11 -7 12 -12 3 -18 -6 -4 -11 -16 -10 -27 2
-19 -5 -20 -170 -23 -103 -1 -173 1 -173 7 0 5 54 11 120 13 115 3 121 4 147
31 28 28 57 34 83 17z m-30 -160 c0 -6 -64 -10 -171 -10 -111 0 -168 3 -164
10 4 6 72 10 171 10 103 0 164 -4 164 -10z m-106 -93 l28 -2 -41 -33 -42 -33
-30 25 c-21 18 -42 26 -69 26 -43 0 -64 17 -28 22 21 3 115 0 182 -5z m346 -1
c0 -8 -14 -19 -31 -25 -27 -9 -30 -14 -25 -35 3 -14 1 -28 -4 -31 -8 -5 -8
-11 -1 -19 6 -7 7 -16 3 -20 -4 -5 -7 -29 -7 -54 l0 -47 -343 -3 c-294 -2
-346 -5 -359 -18 -33 -33 -82 0 -70 48 10 37 44 42 74 12 22 -22 32 -24 120
-24 94 0 96 1 132 33 20 18 47 40 60 49 l25 18 -24 25 c-30 32 -90 35 -120 5
-19 -19 -40 -18 -67 3 -34 26 7 84 52 73 14 -4 25 -11 25 -16 0 -6 21 -10 47
-10 39 0 52 -5 79 -31 l33 -32 48 36 c27 19 57 45 67 56 18 19 30 21 153 21
107 0 133 -3 133 -14z"/>
<path d="M49 841 l-22 -18 21 -45 c12 -24 22 -49 22 -55 0 -6 7 -16 15 -23 12
-10 19 -9 38 3 18 11 26 12 39 3 14 -10 83 -12 193 -6 11 1 38 -1 60 -4 27 -3
51 1 73 12 31 16 34 16 63 -1 30 -17 32 -16 60 4 29 20 31 20 50 3 14 -12 41
-18 97 -21 67 -4 80 -2 95 15 16 17 16 21 2 32 -18 15 -19 34 -3 60 10 15 9
22 -4 37 -15 17 -36 18 -265 16 -136 -2 -259 -3 -273 -3 -14 0 -73 2 -132 4
-92 4 -110 3 -129 -13z m111 -26 c0 -8 -9 -15 -20 -15 -17 0 -20 -7 -20 -45 0
-33 -4 -45 -15 -45 -11 0 -15 12 -15 44 0 38 -3 45 -22 48 -12 2 -23 9 -26 16
-3 9 13 12 57 12 48 0 61 -3 61 -15z m128 -13 c2 -13 -4 -32 -14 -43 -15 -17
-15 -19 0 -25 18 -7 22 -24 5 -24 -6 0 -22 9 -36 20 -14 11 -30 20 -34 20 -5
0 -9 -9 -9 -20 0 -11 -7 -20 -15 -20 -11 0 -15 13 -15 53 0 30 3 57 7 61 4 4
30 6 58 4 44 -3 50 -6 53 -26z m132 -32 c0 -33 -4 -60 -10 -60 -5 0 -10 7 -10
15 0 10 -11 15 -35 15 -24 0 -35 -5 -35 -15 0 -8 -4 -15 -10 -15 -5 0 -10 19
-10 42 0 54 22 78 72 78 l38 0 0 -60z m130 44 c0 -14 -7 -16 -40 -11 -30 4
-40 2 -40 -9 0 -9 12 -14 35 -14 19 0 35 -4 35 -10 0 -5 -16 -10 -35 -10 -31
0 -35 -3 -35 -26 0 -14 -5 -24 -11 -22 -6 2 -10 7 -10 11 1 4 1 30 1 57 l0 50
50 0 c40 0 50 -3 50 -16z m120 0 c0 -14 -7 -16 -40 -11 l-40 5 0 -50 c0 -31
-4 -48 -11 -46 -6 2 -10 7 -10 11 1 4 1 30 1 57 l0 50 50 0 c40 0 50 -3 50
-16z m40 -44 c0 -33 -4 -60 -10 -60 -6 0 -10 27 -10 60 0 33 4 60 10 60 6 0
10 -27 10 -60z m130 45 c0 -11 -11 -15 -40 -15 -38 0 -40 -2 -40 -30 0 -28 2
-30 40 -30 29 0 40 -4 40 -15 0 -11 -11 -15 -43 -15 -52 0 -67 13 -67 60 0 47
15 60 67 60 32 0 43 -4 43 -15z m-180 -45 c0 -5 -13 -10 -30 -10 -16 0 -30 5
-30 10 0 6 14 10 30 10 17 0 30 -4 30 -10z"/>
<path d="M200 788 c0 -23 42 -24 60 -3 7 8 11 15 9 16 -2 0 -19 1 -37 2 -24 2
-32 -2 -32 -15z"/>
<path d="M333 785 c-8 -21 -3 -23 35 -18 42 7 43 33 2 33 -18 0 -33 -6 -37
-15z"/>
<path d="M908 837 c-23 -21 -25 -30 -21 -73 3 -27 10 -55 16 -62 7 -8 40 -12
106 -12 53 0 112 0 131 0 65 -2 105 3 117 13 9 6 23 5 43 -3 26 -11 33 -10 50
5 11 10 20 32 21 49 l1 31 11 -32 c7 -18 17 -38 24 -44 12 -12 171 -24 248
-19 19 1 97 2 133 1 29 -1 96 0 127 1 17 0 48 0 70 -2 44 -3 101 4 128 15 9 4
23 2 30 -4 8 -6 27 -10 43 -10 16 1 68 0 115 -1 49 -1 96 3 108 9 15 8 27 9
40 1 14 -7 27 -7 44 1 17 8 31 8 43 1 12 -7 25 -7 40 0 13 6 31 7 41 3 41 -18
213 -19 241 -1 6 3 22 1 36 -5 37 -17 66 11 66 62 0 71 -35 110 -68 77 -8 -8
-15 -8 -24 0 -13 10 -51 14 -133 13 -22 0 -58 1 -80 1 -22 1 -85 1 -140 1
-272 -1 -348 -4 -365 -13 -9 -5 -23 -4 -33 1 -9 6 -54 10 -99 10 -46 0 -94 1
-108 1 -58 1 -86 1 -105 -1 -11 0 -99 1 -195 3 -188 3 -211 -1 -224 -47 -7
-22 -7 -22 -15 -2 -15 36 -40 51 -62 37 -14 -9 -25 -9 -39 -2 -17 9 -91 13
-210 11 -25 0 -63 2 -85 5 -33 5 -45 1 -67 -19z m109 -19 c-2 -7 -19 -13 -38
-14 -47 -1 -48 -18 -2 -24 31 -4 39 -10 41 -29 5 -30 -12 -41 -65 -41 -32 0
-43 4 -43 15 0 11 12 15 45 15 57 0 59 18 3 22 -37 3 -44 7 -46 27 -5 30 12
41 66 41 31 0 42 -4 39 -12z m49 -45 c-2 -81 -26 -85 -26 -4 0 45 4 61 14 61
10 0 13 -14 12 -57z m134 42 c0 -11 -12 -15 -45 -15 -43 0 -45 -1 -45 -30 0
-28 3 -30 35 -30 19 0 35 5 35 10 0 6 -13 10 -30 10 -16 0 -30 5 -30 10 0 6
18 10 40 10 39 0 40 -1 40 -35 0 -34 -1 -35 -39 -35 -63 0 -71 6 -71 59 0 26
3 51 7 54 3 4 28 7 55 7 36 0 48 -4 48 -15z m76 -20 c14 -19 29 -35 33 -35 4
0 5 16 3 35 -3 27 -1 35 12 35 13 0 16 -12 16 -60 0 -33 -3 -60 -7 -60 -4 0
-24 17 -45 37 l-38 37 0 -37 c0 -26 -4 -37 -15 -37 -12 0 -15 13 -15 60 0 72
15 78 56 25z m252 4 c2 -14 -4 -31 -12 -38 -14 -12 -13 -15 7 -32 21 -18 21
-18 2 -18 -18 0 -75 40 -75 54 0 3 11 5 24 5 26 0 41 14 32 28 -3 5 -19 7 -36
4 -28 -4 -30 -7 -30 -49 0 -27 -4 -43 -11 -41 -6 2 -10 7 -10 11 1 4 1 30 1
58 l0 50 53 -3 c48 -3 52 -5 55 -29z m129 19 c-2 -8 -21 -13 -43 -13 -37 0
-39 -2 -39 -30 0 -28 3 -30 43 -33 28 -2 42 -8 42 -18 0 -18 -80 -20 -98 -2
-7 7 -12 34 -12 60 l0 48 56 0 c40 0 54 -3 51 -12z m123 -3 c0 -11 -11 -15
-40 -15 -38 0 -40 -2 -40 -30 0 -28 2 -30 40 -30 29 0 40 -4 40 -15 0 -11 -11
-15 -43 -15 -52 0 -67 13 -67 60 0 47 15 60 67 60 32 0 43 -4 43 -15z m130
-17 c13 -25 13 -31 0 -55 -31 -56 -120 -35 -120 28 0 40 25 61 68 57 28 -2 40
-10 52 -30z m138 20 c-3 -7 -23 -14 -46 -16 -39 -3 -42 -5 -42 -33 0 -27 3
-29 35 -29 19 0 35 5 35 10 0 6 -13 10 -30 10 -16 0 -30 5 -30 10 0 6 18 10
41 10 39 0 40 -1 37 -32 -3 -31 -6 -33 -46 -36 -24 -2 -50 2 -58 9 -17 14 -19
80 -2 97 17 17 111 16 106 0z m74 -25 l38 -37 0 37 c0 24 5 37 13 37 10 0 13
-15 11 -56 -1 -31 -5 -59 -9 -62 -3 -3 -24 14 -46 38 l-39 45 2 -39 c2 -24 -2
-41 -9 -43 -10 -4 -13 12 -13 56 0 34 3 61 7 61 4 0 24 -17 45 -37z m108 -23
c0 -33 -4 -60 -10 -60 -6 0 -10 27 -10 60 0 33 4 60 10 60 6 0 10 -27 10 -60z
m124 52 c3 -5 -11 -24 -30 -43 l-35 -34 31 -5 c50 -8 39 -25 -17 -28 -63 -4
-68 9 -23 53 17 16 30 32 30 37 0 4 -13 5 -30 2 -23 -5 -30 -3 -30 10 0 13 10
16 49 16 28 0 52 -4 55 -8z m134 -54 c2 -47 0 -58 -13 -58 -8 0 -15 7 -15 15
0 10 -11 15 -35 15 -26 0 -33 -3 -29 -15 4 -9 0 -15 -10 -15 -12 0 -16 10 -16
42 0 57 22 80 74 76 l41 -3 3 -57z m122 46 c0 -11 -6 -15 -20 -11 -18 5 -20 0
-20 -44 0 -37 -4 -49 -15 -49 -11 0 -15 12 -15 45 0 38 -3 45 -20 45 -11 0
-20 7 -20 15 0 12 13 15 55 15 44 0 55 -3 55 -16z m40 -44 c0 -33 -4 -60 -10
-60 -6 0 -10 27 -10 60 0 33 4 60 10 60 6 0 10 -27 10 -60z m140 28 c13 -25
13 -31 0 -55 -31 -56 -120 -35 -120 28 0 40 25 61 68 57 28 -2 40 -10 52 -30z
m79 -3 c17 -19 33 -35 37 -35 3 0 3 16 0 35 -6 28 -4 35 9 35 12 0 15 -13 15
-60 0 -33 -3 -60 -7 -60 -4 0 -24 17 -45 37 l-38 37 0 -37 c0 -24 -5 -37 -13
-37 -10 0 -13 15 -11 58 2 31 3 58 4 60 1 11 23 -4 49 -33z m-1219 -25 c0 -5
-16 -10 -35 -10 -19 0 -35 5 -35 10 0 6 16 10 35 10 19 0 35 -4 35 -10z"/>
<path d="M1833 803 c-7 -2 -13 -18 -13 -34 0 -26 3 -29 35 -29 32 0 35 3 35
29 0 34 -23 48 -57 34z"/>
<path d="M2428 803 c-16 -2 -28 -9 -28 -14 0 -5 0 -12 0 -16 0 -3 13 -7 30 -7
25 -1 30 3 30 22 0 12 -1 21 -2 21 -2 -1 -15 -4 -30 -6z"/>
<path d="M2713 803 c-7 -2 -13 -18 -13 -34 0 -26 3 -29 35 -29 32 0 35 3 35
29 0 34 -23 48 -57 34z"/>
</g>
</svg>
