<?xml version="1.0" standalone="no"?>
<!DOCTYPE svg PUBLIC "-//W3C//DTD SVG 20010904//EN"
 "http://www.w3.org/TR/2001/REC-SVG-20010904/DTD/svg10.dtd">
<svg version="1.0" xmlns="http://www.w3.org/2000/svg"
 width="300.000000pt" height="236.000000pt" viewBox="0 0 300.000000 236.000000"
 preserveAspectRatio="xMidYMid meet">
<metadata>
Created by potrace 1.10, written by Peter Selinger 2001-2011
</metadata>
<g transform="translate(0.000000,236.000000) scale(0.100000,-0.100000)"
fill="#000000" stroke="none">
<path d="M1047 1646 c-46 -17 -80 -47 -113 -98 l-24 -38 -258 0 c-231 0 -261
-2 -299 -19 -71 -33 -73 -41 -73 -363 0 -318 4 -337 70 -370 33 -17 108 -18
1143 -18 1188 0 1146 -2 1192 50 19 21 20 38 23 318 3 323 1 337 -52 375 -30
21 -39 22 -333 25 l-302 3 -25 44 c-31 52 -66 79 -124 94 -67 18 -117 0 -179
-65 l-51 -54 -22 35 c-27 44 -63 70 -118 84 -64 18 -117 0 -174 -59 l-47 -49
-30 38 c-51 64 -136 92 -204 67z m118 -46 c41 -20 85 -79 85 -114 0 -11 9 -16
30 -16 26 0 31 5 40 39 13 50 66 97 118 106 73 12 155 -42 168 -111 6 -31 10
-34 40 -34 30 0 34 4 44 39 13 50 66 97 118 106 73 12 155 -42 168 -111 l6
-33 317 -3 c284 -3 320 -5 344 -21 l27 -17 0 -304 c0 -295 -1 -303 -21 -322
-20 -18 -56 -19 -1143 -22 -1104 -2 -1122 -2 -1153 18 l-33 20 0 296 c0 173 4
303 10 314 19 35 65 40 345 40 l272 0 11 38 c19 62 80 108 146 111 11 1 38 -8
61 -19z"/>
<path d="M1053 1564 c-31 -15 -63 -66 -63 -99 0 -25 27 -72 52 -89 12 -9 40
-16 61 -16 51 0 107 52 107 99 0 47 -27 91 -65 107 -43 18 -52 17 -92 -2z m75
-25 c57 -20 68 -102 17 -135 -40 -26 -89 -12 -110 33 -16 33 -16 40 -4 62 11
19 48 48 65 51 1 0 15 -5 32 -11z"/>
<path d="M1805 1573 c-32 -8 -74 -54 -81 -89 -12 -63 45 -124 117 -124 43 0
99 56 99 99 0 76 -64 130 -135 114z m90 -54 c43 -52 17 -119 -52 -134 -28 -6
-38 -2 -64 25 -27 27 -31 36 -26 68 12 75 93 98 142 41z"/>
<path d="M1397 1550 c-61 -48 -53 -143 16 -176 118 -56 215 96 113 178 -29 24
-97 23 -129 -2z m128 -20 c29 -27 33 -66 10 -109 -35 -68 -136 -51 -159 26
-11 34 4 71 36 92 39 24 81 21 113 -9z"/>
<path d="M372 1418 c-17 -17 -17 -569 0 -586 9 -9 271 -12 1119 -12 609 0
1114 3 1123 6 14 5 16 41 16 293 0 210 -3 290 -12 299 -9 9 -95 12 -327 12
l-316 0 -15 -33 c-47 -100 -201 -102 -255 -4 -18 33 -24 37 -60 37 -35 0 -42
-4 -55 -33 -46 -99 -198 -103 -253 -6 -19 34 -27 39 -57 39 -30 0 -37 -5 -50
-33 -47 -100 -201 -102 -255 -4 l-20 37 -285 0 c-209 0 -289 -3 -298 -12z
m581 -63 c54 -67 146 -93 220 -61 18 7 48 30 66 50 19 20 40 36 46 36 6 0 21
-13 33 -30 44 -59 138 -86 209 -59 15 5 49 31 75 56 l47 46 33 -37 c42 -48 96
-76 147 -76 57 0 90 15 142 66 l45 44 285 -2 284 -3 3 -109 c1 -60 -1 -113 -6
-118 -5 -5 -47 -10 -92 -10 -72 0 -85 3 -106 23 -21 20 -28 21 -44 11 -11 -7
-28 -12 -38 -12 -10 0 -22 -4 -28 -10 -5 -5 -44 -10 -87 -11 -61 -1 -85 3
-118 20 -38 20 -43 21 -59 6 -27 -24 -76 -29 -112 -11 -39 20 -48 20 -76 -2
-20 -16 -42 -18 -174 -15 -132 3 -154 6 -176 23 -47 37 -110 23 -132 -30 -13
-31 -13 -31 -34 -12 -12 11 -41 22 -66 26 -24 4 -50 12 -57 17 -8 7 -23 7 -47
-2 -29 -10 -38 -10 -52 2 -9 7 -43 15 -77 16 -52 2 -65 -1 -87 -20 -20 -19
-35 -23 -83 -22 -48 1 -62 6 -86 29 -32 31 -56 29 -86 -4 -13 -15 -31 -20 -66
-20 -41 0 -51 4 -65 25 -23 35 -51 50 -69 35 -8 -6 -24 -10 -37 -8 -22 3 -23
8 -26 82 -2 44 -1 85 2 93 4 10 57 13 263 13 l258 0 28 -35z m-450 -201 c-3
-8 -16 -14 -29 -14 -22 0 -24 -4 -24 -54 0 -34 5 -56 13 -59 6 -3 -1 -6 -18
-6 l-30 -1 3 65 c3 42 0 65 -7 65 -6 0 -11 -4 -11 -10 0 -5 -7 -10 -16 -10 -9
0 -14 7 -12 18 4 18 24 20 72 7 22 -6 27 -5 21 5 -10 16 16 32 32 19 6 -6 9
-17 6 -25z m224 0 c3 -9 0 -20 -8 -25 -12 -7 -12 -9 1 -9 12 0 13 -2 1 -9 -9
-6 -12 -22 -9 -49 l3 -41 -48 1 c-27 0 -51 -3 -54 -6 -10 -9 -43 14 -43 30 0
8 14 20 30 26 17 5 29 15 27 21 -5 15 -28 21 -25 7 2 -7 -3 -15 -9 -17 -8 -3
-13 4 -13 17 0 18 5 21 33 18 29 -3 32 -6 35 -41 2 -20 7 -35 13 -32 5 4 9 1
9 -4 0 -6 5 -11 10 -11 15 0 13 80 -2 81 -10 0 -10 2 0 6 6 2 12 13 12 22 0
32 26 43 37 15z m278 -16 c0 -10 -4 -17 -10 -15 -5 1 -9 8 -9 15 2 16 -28 12
-33 -5 -3 -7 12 -22 31 -34 42 -25 46 -52 12 -74 -19 -13 -29 -14 -45 -5 -22
11 -30 55 -8 47 6 -2 11 -12 11 -21 -2 -12 4 -16 20 -14 30 4 26 29 -9 48 -34
19 -43 44 -24 66 17 20 64 14 64 -8z m444 8 c7 -8 11 -25 10 -38 -4 -45 1 -69
12 -62 7 4 10 1 7 -7 -8 -25 -43 -16 -46 11 -2 14 -9 31 -14 38 -7 8 -7 12 1
12 18 0 9 44 -10 48 -13 2 -15 -6 -12 -45 2 -26 5 -56 7 -65 3 -14 -3 -18 -27
-18 -19 0 -27 3 -20 8 7 4 13 32 14 62 1 30 4 58 6 63 7 12 60 8 72 -7z m-269
-11 c0 -8 -5 -15 -10 -15 -6 0 -5 -8 2 -20 14 -22 3 -50 -21 -58 -10 -3 -10 0
-2 16 13 25 5 52 -16 52 -10 0 -14 -9 -12 -33 2 -18 0 -38 -5 -45 -5 -9 1 -12
26 -10 27 3 34 -1 36 -19 3 -17 -3 -24 -23 -29 -34 -9 -72 25 -60 53 4 10 7
33 6 51 -2 23 2 34 16 39 10 3 22 12 26 20 11 18 37 17 37 -2z m700 0 c0 -8
-4 -15 -10 -15 -6 0 -5 -10 2 -25 8 -19 8 -28 -2 -40 -20 -24 -26 -18 -22 20
3 28 1 35 -13 35 -12 0 -16 -8 -13 -32 2 -20 -3 -38 -12 -46 -13 -11 -9 -12
23 -7 28 5 39 2 43 -10 8 -19 -13 -45 -36 -45 -28 0 -56 38 -44 58 8 12 8 22
1 33 -13 20 -3 47 20 56 10 4 22 12 26 20 11 18 37 17 37 -2z m434 -17 c8 -5
7 -8 -1 -8 -8 0 -13 -14 -13 -38 0 -32 3 -38 21 -38 18 0 20 5 17 43 -2 35 0
43 13 43 13 0 18 -11 21 -50 3 -50 3 -50 -27 -49 -16 1 -37 0 -45 -2 -11 -3
-16 7 -18 44 -2 26 -7 47 -13 47 -5 0 -1 8 9 18 10 10 19 13 21 7 2 -5 9 -13
15 -17z m-1792 -42 c-3 -25 1 -42 10 -47 9 -6 6 -9 -12 -9 -23 0 -25 3 -25 50
0 40 3 50 15 48 11 -3 14 -14 12 -42z m248 0 c0 -26 5 -46 13 -49 6 -3 -4 -6
-23 -6 -23 0 -30 2 -21 8 9 6 12 22 9 50 -2 29 0 41 9 41 9 0 13 -15 13 -44z
m108 22 c2 -12 -3 -18 -13 -18 -11 0 -15 5 -11 15 3 9 0 15 -9 15 -17 0 -28
-33 -20 -60 8 -25 31 -26 44 -2 10 16 10 16 11 0 0 -10 -9 -22 -19 -28 -25
-13 -27 -13 -45 6 -19 19 -21 65 -4 82 18 18 62 11 66 -10z m194 -28 c3 -45 1
-50 -17 -50 -17 0 -20 7 -20 50 0 40 3 50 17 50 12 0 17 -12 20 -50z m216 5
c2 -22 9 -43 15 -47 7 -4 -4 -8 -23 -8 -23 0 -30 3 -22 9 19 11 12 76 -8 76
-11 0 -15 -11 -15 -43 0 -38 -2 -42 -24 -42 -20 0 -22 3 -13 12 15 15 16 60 0
76 -9 9 0 11 38 9 l49 -2 3 -40z m286 30 c6 -17 -19 -45 -40 -45 -8 0 -14 -7
-14 -15 0 -17 25 -20 35 -5 3 6 12 10 18 10 7 -1 1 -10 -12 -21 -21 -17 -26
-18 -45 -6 -24 16 -33 62 -15 83 15 18 65 18 73 -1z m94 -7 c2 -12 -3 -18 -13
-18 -11 0 -15 5 -11 15 3 9 0 15 -8 15 -18 0 -27 -26 -20 -56 7 -26 23 -31 42
-12 9 9 12 9 12 0 0 -10 -30 -32 -44 -32 -2 0 -12 7 -20 16 -19 19 -21 65 -4
82 18 18 62 11 66 -10z m90 10 c20 -20 15 -76 -9 -88 -26 -15 -69 11 -69 41 0
50 47 78 78 47z m226 -10 c15 -71 14 -78 -8 -78 -19 0 -21 5 -17 46 2 36 0 45
-10 42 -9 -3 -14 -20 -14 -46 0 -35 -3 -42 -20 -42 -17 0 -20 7 -20 50 l0 50
42 0 c36 0 43 -3 47 -22z m56 -22 c0 -26 5 -46 13 -49 6 -3 1 -6 -13 -6 -23
-1 -25 2 -25 49 0 33 4 50 13 50 8 0 12 -15 12 -44z m104 32 c-4 -7 -16 -26
-27 -41 -22 -32 -15 -51 7 -21 14 18 15 18 22 0 9 -23 -13 -37 -46 -29 -36 8
-36 8 -6 53 14 22 22 40 17 40 -5 0 -12 -7 -15 -16 -7 -18 -26 -10 -26 12 0
10 12 14 41 14 29 0 38 -3 33 -12z m94 -38 c3 -33 6 -40 13 -30 9 13 10 13 6
0 -2 -8 -14 -16 -26 -16 -12 -1 -24 -4 -28 -7 -9 -10 -43 12 -43 29 0 8 14 20
30 26 17 5 29 15 27 21 -5 15 -28 21 -25 7 2 -7 -3 -15 -9 -17 -8 -3 -13 4
-13 17 0 18 5 21 33 18 30 -3 32 -5 35 -48z m236 34 c23 -61 -13 -110 -60 -79
-26 16 -31 44 -14 76 13 24 65 26 74 3z m116 8 c1 -4 5 -26 9 -49 8 -40 7 -43
-13 -43 -19 0 -21 5 -18 45 4 48 -9 60 -28 26 -14 -27 -13 -58 3 -64 6 -3 1
-6 -13 -6 -23 -1 -25 2 -25 48 l0 49 43 0 c23 1 42 -2 42 -6z m-1669 -108 c8
-10 27 -15 58 -13 51 2 88 -6 111 -26 31 -27 63 -27 99 0 22 15 48 25 70 25
19 0 43 7 53 17 17 15 19 15 36 0 14 -12 41 -17 114 -18 53 -1 101 2 106 5 6
3 21 2 34 -2 12 -5 34 -6 48 -2 38 9 117 -6 147 -30 31 -24 61 -21 101 10 22
18 41 19 215 18 106 0 252 0 326 1 74 1 138 -2 143 -7 5 -5 8 -33 6 -63 l-3
-54 -1090 0 -1090 0 -3 63 -3 62 33 1 c18 1 58 1 88 0 30 -1 120 -2 200 -2
114 1 148 4 159 16 19 19 25 19 42 -1z"/>
<path d="M601 1056 c-8 -10 -9 -16 -1 -21 13 -8 30 3 30 21 0 18 -14 18 -29 0z"/>
<path d="M1520 1089 c0 -24 23 -21 28 4 2 10 -3 17 -12 17 -10 0 -16 -9 -16
-21z"/>
<path d="M1710 1070 c0 -34 3 -41 18 -38 12 2 17 13 17 38 0 25 -5 36 -17 38
-15 3 -18 -4 -18 -38z"/>
<path d="M2191 1056 c-8 -10 -9 -16 -1 -21 13 -8 30 3 30 21 0 18 -14 18 -29
0z"/>
<path d="M2427 1104 c-4 -4 -7 -23 -7 -41 0 -27 4 -34 18 -31 12 2 17 13 17
37 0 33 -13 49 -28 35z"/>
</g>
</svg>
